<svg width="20" height="21" viewBox="0 0 20 21" fill="none" xmlns="http://www.w3.org/2000/svg">
<path d="M13.2 10.4009C13.2 11.0338 13.0123 11.6525 12.6607 12.1787C12.3091 12.7049 11.8093 13.1151 11.2246 13.3573C10.6399 13.5995 9.99645 13.6629 9.37571 13.5394C8.75497 13.4159 8.18479 13.1111 7.73726 12.6636C7.28973 12.2161 6.98496 11.6459 6.86149 11.0252C6.73801 10.4044 6.80138 9.76101 7.04359 9.17629C7.28579 8.59157 7.69594 8.0918 8.22218 7.74018C8.74841 7.38856 9.3671 7.20088 10 7.20088C10.8479 7.20352 11.6603 7.54151 12.2598 8.14105C12.8594 8.7406 13.1974 9.553 13.2 10.4009ZM20 6.00088V14.8009C20 16.2861 19.41 17.7105 18.3598 18.7607C17.3096 19.8109 15.8852 20.4009 14.4 20.4009H5.6C4.11479 20.4009 2.69041 19.8109 1.6402 18.7607C0.589998 17.7105 0 16.2861 0 14.8009V6.00088C0 4.51567 0.589998 3.09128 1.6402 2.04108C2.69041 0.990877 4.11479 0.400879 5.6 0.400879H14.4C15.8852 0.400879 17.3096 0.990877 18.3598 2.04108C19.41 3.09128 20 4.51567 20 6.00088ZM14.8 10.4009C14.8 9.45153 14.5185 8.5235 13.9911 7.73414C13.4636 6.94479 12.714 6.32956 11.8369 5.96626C10.9598 5.60296 9.99468 5.5079 9.06357 5.69311C8.13246 5.87832 7.27718 6.33547 6.60589 7.00677C5.9346 7.67806 5.47744 8.53334 5.29223 9.46445C5.10702 10.3956 5.20208 11.3607 5.56538 12.2378C5.92868 13.1148 6.54391 13.8645 7.33326 14.3919C8.12262 14.9194 9.05065 15.2009 10 15.2009C11.273 15.2009 12.4939 14.6952 13.3941 13.795C14.2943 12.8948 14.8 11.6739 14.8 10.4009ZM16.4 5.20088C16.4 4.96354 16.3296 4.73153 16.1978 4.53419C16.0659 4.33686 15.8785 4.18305 15.6592 4.09222C15.4399 4.0014 15.1987 3.97763 14.9659 4.02394C14.7331 4.07024 14.5193 4.18453 14.3515 4.35235C14.1837 4.52017 14.0694 4.73399 14.0231 4.96677C13.9768 5.19955 14.0005 5.44083 14.0913 5.6601C14.1822 5.87937 14.336 6.06679 14.5333 6.19864C14.7307 6.3305 14.9627 6.40088 15.2 6.40088C15.5183 6.40088 15.8235 6.27445 16.0485 6.04941C16.2736 5.82436 16.4 5.51914 16.4 5.20088Z" fill="white"/>
</svg>
