<?xml version="1.0" encoding="UTF-8"?>
<svg id="snowflake" width="94" height="82" viewBox="0 0 94 82" fill="none" xmlns="http://www.w3.org/2000/svg">
    <path d="M14.0885 42.4763H15.4677L20.3857 46.523L25.1266 42.5515L25.1505 47.7983L30.1715 47.7741C30.9665 47.7692 31.613 47.1122 31.613 46.2999C31.613 45.9071 31.4597 45.541 31.1844 45.2646C30.909 44.9882 30.5427 44.8379 30.1572 44.8403L28.0358 44.85L28.0238 42.4254L32.1852 42.406L32.2092 47.7668L42.1219 41.0046L32.1445 34.0751L32.1685 39.4698L28.007 39.4892L27.9879 35.6123C27.9831 34.8049 27.3342 34.1527 26.5393 34.1527H26.5321C25.7372 34.1575 25.0907 34.8146 25.0907 35.6268L25.1074 39.3898L20.3307 35.462L15.4557 39.545H13.976L23.9725 30.186L21.3962 28.6003L11.7324 37.6465L11.7229 35.4862C11.7181 34.6788 11.0692 34.0266 10.2743 34.0266H10.2671C9.47216 34.0314 8.82567 34.6885 8.82567 35.5008L8.84483 39.5377L1.4486 39.528C1.0631 39.528 0.699158 39.6808 0.426199 39.9572C0.15324 40.2336 0 40.6021 0 40.9973C0 41.8047 0.648876 42.4642 1.4462 42.4642L8.8592 42.4739L8.87835 46.6006C8.88314 47.4104 9.53441 48.0675 10.3341 48.0602C11.1291 48.0553 11.7755 47.3983 11.7755 46.586L11.766 44.3166L21.5326 53.29L21.6021 53.3531L24.2239 51.7941L14.0861 42.4812L14.0885 42.4763ZM22.4545 40.9804L20.369 42.7261L18.2691 40.9998L20.3546 39.254L22.4545 40.9804V40.9804ZM35.0872 42.2654L35.0752 39.6614L36.9716 40.9779L35.0872 42.263V42.2654Z" fill="white"/>
    <path d="M91.5586 39.4601L84.1456 39.4504L84.1264 35.3261C84.1216 34.5187 83.4728 33.8665 82.6778 33.8665H82.6707C81.8757 33.8714 81.2292 34.5284 81.2292 35.3407L81.2388 37.6101L71.532 28.69L71.4626 28.627L68.8383 30.1835L78.9211 39.4455H77.5419L72.6239 35.3989L67.883 39.3704L67.859 34.1235L62.838 34.1478C62.0431 34.1526 61.3966 34.8097 61.3966 35.6219C61.4014 36.4293 62.0503 37.0815 62.8452 37.0815H62.8524L64.9738 37.0718L64.9858 39.4964L60.8244 39.5158L60.8004 34.155L50.8877 40.9173L60.8651 47.8468L60.8411 42.452L65.0025 42.4326L65.0217 46.3096C65.0217 46.7024 65.1749 47.0685 65.4503 47.3449C65.7256 47.6213 66.0848 47.774 66.4775 47.7692C67.2724 47.7643 67.9189 47.1073 67.9189 46.295L67.9021 42.532L72.6813 46.4599L77.5563 42.3769H79.0384L69.0323 51.7431L71.6541 53.2851L81.2795 44.2753L81.2891 46.4356C81.2891 46.8284 81.4423 47.1945 81.7177 47.4709C81.993 47.7474 82.357 47.8977 82.7449 47.8953C83.5398 47.8904 84.1863 47.2333 84.1863 46.4211L84.1671 42.3841L91.5634 42.3938C91.9489 42.3938 92.3128 42.2411 92.5858 41.9647C92.8587 41.6883 93.012 41.3197 93.012 40.9245C93.012 40.1171 92.3631 39.4576 91.5658 39.4576M70.5623 40.9342L72.6478 39.1885L74.7477 40.9148L72.6646 42.6605L70.5647 40.9342H70.5623ZM57.9296 39.6492L57.9415 42.2532L56.0452 40.9367L57.9296 39.6516V39.6492Z" fill="white"/>
    <path d="M45.1341 56.9439L44.308 44.8694L33.3945 50.155L38.0204 52.8293L35.9564 56.4905L32.6306 54.5678C31.9363 54.1677 31.0504 54.4126 30.6529 55.1133C30.2578 55.8116 30.4973 56.7087 31.1916 57.116L34.4192 58.983L28.6703 61.2088L29.7263 67.5249L28.984 68.822L25.8498 54.7981L23.2112 56.2868L26.2401 69.8379L24.3868 68.7663C23.6924 68.3638 22.8065 68.6111 22.4091 69.3118C22.014 70.0101 22.2534 70.9072 22.9478 71.3145L26.4101 73.3172L22.7036 79.7982C22.5096 80.1376 22.4569 80.5328 22.5575 80.9111C22.6581 81.2893 22.8975 81.6069 23.2303 81.8033L23.2375 81.8082C23.4626 81.9391 23.7092 81.9997 23.9534 81.9997C24.4539 81.9997 24.9423 81.7379 25.2105 81.2675L28.9265 74.772L32.463 76.8183C33.1574 77.2208 34.0433 76.9735 34.4408 76.2728C34.8359 75.5745 34.5964 74.6774 33.9021 74.2701L31.9554 73.1451L44.0686 69.2124L44.2146 66.0798L31.5436 70.1968L32.2356 68.9869L38.1545 66.6956L37.1273 60.5517L41.6263 63.1533L44.1165 58.7381C44.5115 58.0398 44.2721 57.1427 43.5777 56.7354C42.8834 56.3329 41.9975 56.5802 41.6 57.2809L40.5465 59.1479L38.4657 57.9453L40.5297 54.2841L45.1269 56.9439H45.1341ZM41.8682 51.6752L39.6342 50.3829L41.7101 49.3767L41.8682 51.6728V51.6752ZM34.4528 62.1107L34.9029 64.8117L32.3768 65.7913L31.9243 63.0903L34.4504 62.1107H34.4528Z" fill="white"/>
    <path d="M70.706 69.1954C70.3037 68.4995 69.4178 68.2619 68.7234 68.6692L66.7888 69.8161L69.5998 56.6165L69.6189 56.5244L66.9779 54.9848L64.0616 68.7008L63.372 67.4909L64.3633 61.153L58.5928 58.9878L63.0655 56.3377L60.5299 51.9492C60.1276 51.2533 59.2417 51.0157 58.5473 51.423C57.8577 51.8328 57.6255 52.7323 58.0277 53.4306L59.098 55.2854L57.0317 56.5099L54.9294 52.873L59.5003 50.1647L48.7543 44.8645L47.8301 57.0796L52.4297 54.3568L54.5319 57.9961L51.2277 59.9528C50.5381 60.3626 50.3059 61.2621 50.7081 61.9604C51.1104 62.6562 51.9963 62.8938 52.6907 62.4865L55.8991 60.5856L54.9366 66.7417L60.8675 68.9675L61.6073 70.267L48.7423 66.2374L48.7184 69.3021L61.1069 73.1838L59.2656 74.2749C58.576 74.6847 58.3438 75.5842 58.746 76.2825C59.1483 76.9783 60.0342 77.216 60.7166 76.8159L64.1717 74.7695L67.8662 81.2553C68.0602 81.5948 68.3714 81.8372 68.745 81.9391C68.8695 81.973 68.9964 81.99 69.1233 81.99C69.3747 81.99 69.6237 81.9221 69.8464 81.7912C70.536 81.3863 70.7754 80.4867 70.3755 79.7884L66.6714 73.2857L70.1888 71.2029C70.8784 70.7932 71.1106 69.8937 70.7084 69.1954M61.1308 63.0733L60.707 65.7791L58.1714 64.8262L58.5952 62.1204L61.1308 63.0733ZM53.3659 50.4071L51.1463 51.7213L51.3211 49.3985L53.3659 50.4071V50.4071Z" fill="white"/>
    <path d="M38.5663 24.0009L41.873 22.0442C42.5626 21.6369 42.7972 20.735 42.3926 20.0367C41.9927 19.3408 41.1044 19.1032 40.41 19.5105L37.1991 21.409L38.1665 15.2554L32.2356 13.0247L31.4957 11.7251L44.9234 15.9415V12.8696L31.9986 8.81077L33.8422 7.7197C34.5318 7.31237 34.7665 6.41042 34.3618 5.71213C33.962 5.01627 33.0736 4.77866 32.3793 5.18599L28.9362 7.22266L25.2464 0.734426C24.8466 0.033716 23.9606 -0.208744 23.2663 0.196164C22.5743 0.601073 22.3373 1.49817 22.7347 2.19888L26.434 8.70409L22.9167 10.7844C22.2271 11.1917 21.9925 12.0937 22.3971 12.792C22.7994 13.4878 23.6853 13.7254 24.3797 13.3181L26.3143 12.1737L23.5967 24.9053L23.5775 24.9974L26.2305 26.4716L29.0439 13.2866L29.7335 14.4965L28.7374 20.8319L34.5055 23.002L30.0328 25.6472L32.566 30.0357C32.9659 30.7316 33.8542 30.9692 34.5486 30.5619C35.2382 30.1545 35.4728 29.2526 35.0682 28.5543L33.9979 26.6995L36.0666 25.4751L38.1665 29.1144L33.5956 31.8202L44.3392 37.1277L45.2706 24.9125L40.671 27.6329L38.5711 23.9936L38.5663 24.0009ZM41.7724 32.6034L39.73 31.5947L41.9496 30.2806L41.7724 32.6034ZM31.9722 18.9214L32.3984 16.2155L34.9341 17.1684L34.5079 19.8742L31.9722 18.9214Z" fill="white"/>
    <path d="M47.9259 25.0556L48.7472 37.1301L59.6632 31.8493L55.0372 29.1726L57.1036 25.5138L60.427 27.439C61.1213 27.839 62.0073 27.5966 62.4047 26.8934C62.7998 26.1952 62.5604 25.2981 61.866 24.8907L58.6384 23.0238L64.3873 20.8004L63.3337 14.4843L64.076 13.1872L67.0762 26.634L69.6908 25.0362L66.82 12.1688L68.6732 13.2405C69.0084 13.4345 69.4011 13.4854 69.7746 13.3811C70.1481 13.2793 70.4594 13.0344 70.651 12.6926C71.046 11.9943 70.8066 11.0972 70.1122 10.6898L66.65 8.68469L70.3588 2.20616C70.5528 1.86672 70.6055 1.47151 70.5049 1.09327C70.4067 0.715031 70.1673 0.397409 69.8297 0.201016C69.1401 -0.203892 68.2518 0.0361431 67.8519 0.734428L64.1335 7.22751L60.597 5.18115C59.9026 4.78109 59.0167 5.02355 58.6192 5.72668C58.2241 6.42497 58.4636 7.32207 59.158 7.7294L61.1046 8.85684L48.4048 12.9738L48.3162 13.0029V16.087L61.5116 11.8052L60.8197 13.015L54.9008 15.3039L55.9255 21.4478L51.4289 18.8438L48.9364 23.2565C48.5413 23.9548 48.7807 24.8519 49.4751 25.2593C50.1695 25.6617 51.0554 25.4169 51.4528 24.7137L52.5064 22.8492L54.5847 24.0518L52.5183 27.7105L47.9211 25.0483L47.9259 25.0556ZM51.1895 30.3243L53.421 31.6166L51.3451 32.6204L51.1895 30.3243V30.3243ZM58.6096 19.8912L58.1595 17.1902L60.688 16.2131L61.1381 18.9141L58.6096 19.8912Z" fill="white"/>
</svg>